<svg width="24" height="24" viewBox="0 0 24 24" fill="none" xmlns="http://www.w3.org/2000/svg">
<path d="M10.18 17.008C10.3 17.008 10.391 17.004 10.451 16.996C10.5214 16.9818 10.5848 16.944 10.631 16.889C10.691 16.826 10.721 16.735 10.721 16.615L10.717 16.058C10.714 15.703 10.713 15.421 10.713 15.214L10.525 15.247C10.3745 15.2707 10.2222 15.2801 10.07 15.275C9.87873 15.2716 9.68809 15.2526 9.49997 15.218C9.30033 15.1808 9.11246 15.0964 8.95197 14.972C8.78373 14.8447 8.65817 14.6693 8.59197 14.469L8.50997 14.28C8.441 14.1312 8.35437 13.9912 8.25197 13.863C8.16002 13.7316 8.0375 13.6245 7.89497 13.551L7.83797 13.511C7.79871 13.4821 7.76312 13.4485 7.73197 13.411C7.70173 13.3769 7.67679 13.3385 7.65797 13.297C7.64197 13.259 7.65497 13.227 7.69797 13.203C7.77344 13.1727 7.85485 13.16 7.93597 13.166L8.09997 13.191C8.20997 13.212 8.34497 13.278 8.50597 13.387C8.66597 13.497 8.79897 13.638 8.90297 13.813C9.02897 14.037 9.17997 14.208 9.35797 14.325C9.51509 14.4358 9.70175 14.4971 9.89397 14.501C10.074 14.501 10.23 14.488 10.361 14.461C10.4885 14.4346 10.6124 14.3929 10.73 14.337C10.779 13.972 10.912 13.69 11.13 13.494C10.847 13.466 10.5665 13.4165 10.291 13.346C10.022 13.2719 9.76329 13.1644 9.52097 13.026C9.2672 12.8883 9.04295 12.7021 8.86097 12.478C8.68697 12.259 8.54397 11.973 8.43097 11.618C8.31315 11.2192 8.25683 10.8048 8.26397 10.389C8.26397 9.72901 8.47997 9.16601 8.91097 8.70201C8.70897 8.20501 8.72797 7.64801 8.96797 7.03101C9.12697 6.98101 9.36197 7.01801 9.67297 7.14101C9.98397 7.26401 10.213 7.36901 10.357 7.45701C10.502 7.54401 10.617 7.61701 10.705 7.67701C11.2171 7.53476 11.7464 7.46343 12.278 7.46501C12.818 7.46501 13.343 7.53501 13.851 7.67801L14.161 7.48101C14.375 7.35101 14.626 7.23001 14.915 7.12101C15.205 7.01101 15.426 6.98101 15.579 7.03101C15.825 7.64801 15.847 8.20501 15.644 8.70101C16.076 9.16601 16.292 9.72801 16.292 10.389C16.292 10.853 16.236 11.264 16.124 11.622C16.012 11.98 15.867 12.266 15.69 12.482C15.505 12.7039 15.2797 12.8889 15.026 13.027C14.7837 13.1654 14.525 13.2729 14.256 13.347C13.9801 13.4173 13.6993 13.4664 13.416 13.494C13.7 13.739 13.842 14.127 13.842 14.657V16.614C13.842 16.707 13.856 16.782 13.883 16.84C13.8957 16.8676 13.9138 16.8924 13.9363 16.9129C13.9588 16.9333 13.9852 16.949 14.014 16.959C14.074 16.98 14.128 16.994 14.174 16.999C14.221 17.005 14.287 17.008 14.374 17.008H12.408H10.181H10.18Z" />
<path d="M6 4C5.46957 4 4.96086 4.21071 4.58579 4.58579C4.21071 4.96086 4 5.46957 4 6V18C4 18.5304 4.21071 19.0391 4.58579 19.4142C4.96086 19.7893 5.46957 20 6 20H18C18.5304 20 19.0391 19.7893 19.4142 19.4142C19.7893 19.0391 20 18.5304 20 18V6C20 5.46957 19.7893 4.96086 19.4142 4.58579C19.0391 4.21071 18.5304 4 18 4H6ZM6 2H18C19.0609 2 20.0783 2.42143 20.8284 3.17157C21.5786 3.92172 22 4.93913 22 6V18C22 19.0609 21.5786 20.0783 20.8284 20.8284C20.0783 21.5786 19.0609 22 18 22H6C4.93913 22 3.92172 21.5786 3.17157 20.8284C2.42143 20.0783 2 19.0609 2 18V6C2 4.93913 2.42143 3.92172 3.17157 3.17157C3.92172 2.42143 4.93913 2 6 2V2Z"/>
</svg>
