<svg width="50" height="50" viewBox="0 0 50 50" fill="none" xmlns="http://www.w3.org/2000/svg">
<g clip-path="url(#clip0)">
<path d="M49.5714 12.8585L37.1417 0.428898C36.5698 -0.143175 35.6422 -0.143175 35.0702 0.428898L28.66 6.83908C28.0879 7.41115 28.0879 8.3386 28.66 8.91067L29.2945 9.54524L12.5289 17.9281C12.208 18.0885 11.9571 18.3612 11.8239 18.6943L0.110155 47.9783C0.108398 47.9826 0.106737 47.9868 0.105077 47.9911C0.0900382 48.0286 0.0770499 48.0666 0.0653311 48.1048C0.0399403 48.1876 0.0199207 48.2836 0.0098621 48.3752C-0.0332045 48.769 0.0822257 49.145 0.313867 49.4393C0.322461 49.4503 0.330957 49.4613 0.339942 49.4721C0.69258 49.8953 1.23389 50.0712 1.74141 49.9736C1.77891 49.9665 1.81592 49.9569 1.85294 49.9468C1.86065 49.9446 1.86856 49.9433 1.87628 49.941C1.92569 49.9266 1.97442 49.9096 2.02237 49.8899L31.3062 38.1764C31.6393 38.0432 31.9119 37.7923 32.0724 37.4714L40.4552 20.7057L41.0898 21.3403C41.3758 21.6263 41.7507 21.7694 42.1256 21.7694C42.5004 21.7694 42.8754 21.6264 43.1613 21.3403L49.5715 14.9301C50.1435 14.3582 50.1435 13.4307 49.5714 12.8585ZM29.701 35.6631L7.5472 44.5247L20.0795 31.9924C20.6532 32.2675 21.2954 32.4219 21.9729 32.4219C24.3961 32.4219 26.3675 30.4505 26.3675 28.0273C26.3675 25.6042 24.3961 23.6328 21.9729 23.6328C19.5498 23.6328 17.5784 25.6042 17.5784 28.0273C17.5784 28.7049 17.7328 29.3472 18.0079 29.9208L5.47561 42.4531L14.3371 20.2993L31.4781 11.7288L38.2714 18.5221L29.701 35.6631ZM20.5081 28.0273C20.5081 27.2196 21.1652 26.5625 21.9729 26.5625C22.7807 26.5625 23.4378 27.2196 23.4378 28.0273C23.4378 28.8351 22.7807 29.4922 21.9729 29.4922C21.1652 29.4922 20.5081 28.8351 20.5081 28.0273ZM42.1255 18.2329L41.0709 17.1783C41.07 17.1774 41.0691 17.1765 41.0682 17.1756L32.8247 8.93215C32.8237 8.93108 32.8226 8.93001 32.8215 8.92893L31.7674 7.87492L36.1059 3.53643L46.4639 13.8945L42.1255 18.2329Z" fill="#626262"/>
</g>
<defs>
<clipPath id="clip0">
<rect width="50" height="50" fill="white"/>
</clipPath>
</defs>
</svg>
